<svg xmlns="http://www.w3.org/2000/svg" viewBox="0 0 100 116">
  <!-- Play-button triangle shape (currentColor fill) -->
  <path fill="currentColor" d="M8,4 C4,4 1,7 1,12 L1,104 C1,109 4,112 8,112 C10,112 12,111 14,110 L93,64 C97,62 99,58 99,54 C99,50 97,46 93,44 L14,6 C12,5 10,4 8,4 Z"/>
  <!-- "r" glyph in white -->
  <path fill="white" d="M18,41 L18,74 L24,74 L24,56 C24,52 26,50 30,50 L34,50 L34,44 C30,43 27,44 24,48 L24,41 Z"/>
  <!-- "m" glyph in white -->
  <path fill="white" d="M36,47 C38,43 41,41 45,41 C49,41 51,43 52,46 C54,43 57,41 61,41 C66,41 69,44 69,50 L69,74 L63,74 L63,52 C63,49 62,47 59,47 C56,47 54,49 54,52 L54,74 L48,74 L48,52 C48,49 47,47 44,47 C41,47 39,49 39,52 L39,74 L33,74 L33,50 C33,48 34,47 36,47 Z"/>
</svg>
