<?xml version="1.0" encoding="utf-8"?>
<!-- Generator: Adobe Illustrator 22.1.0, SVG Export Plug-In . SVG Version: 6.00 Build 0)  -->
<svg version="1.1" id="レイヤー_1" xmlns="http://www.w3.org/2000/svg" xmlns:xlink="http://www.w3.org/1999/xlink" x="0px"
	 y="0px" viewBox="0 0 262.9 79.9" style="enable-background:new 0 0 262.9 79.9;" xml:space="preserve">
<style type="text/css">
	.st0{fill:#FFFFFF;}
</style>
<path class="st0" d="M117.9,31.1c0-0.4,0-0.7-0.1-1.1c0.3,0,0.6,0,1.1,0h5.8c0.5,0,0.7,0,1.1,0c0,0.3-0.1,0.6-0.1,1.1V37
	c0,0.6,0,0.9,0.1,1.2h-1.1v-0.5h-5.9v0.5h-1c0-0.3,0.1-0.6,0.1-1.2V31.1z M118.9,36.8h5.9v-5.8h-5.9V36.8z M120.3,32.4
	c-0.4,0-0.6,0-0.8,0v-0.9c0.2,0,0.4,0,0.8,0h3.1c0.4,0,0.6,0,0.9,0v0.9c-0.3,0-0.4,0-0.9,0h-1.2v1h0.9c0.4,0,0.6,0,0.8,0v0.9
	c-0.2,0-0.3,0-0.6,0c0.2,0.3,0.4,0.6,0.6,0.9l-0.5,0.3c0.5,0,0.6,0,0.9-0.1v1c-0.3,0-0.5,0-0.9,0h-3.3c-0.4,0-0.6,0-0.9,0v-1
	c0.3,0,0.5,0.1,0.9,0.1h1.1v-1.2h-0.8c-0.4,0-0.6,0-0.8,0v-0.9c0.2,0,0.4,0,0.8,0h0.8v-1H120.3z M122.2,35.3h1
	c-0.2-0.4-0.3-0.6-0.6-0.9l0.5-0.2h-0.9V35.3z"/>
<path class="st0" d="M131.2,36.7c0.6-1.2,1.3-3.5,1.4-4.4l1.2,0.3c-0.1,0.2-0.1,0.2-0.3,0.9c-0.3,1.1-0.8,2.4-1.2,3.2h1.7
	c0.5,0,0.9,0,1.2-0.1v1.1c-0.3,0-0.7-0.1-1.2-0.1h-6c-0.5,0-0.9,0-1.2,0.1v-1.1c0.3,0,0.7,0.1,1.2,0.1H131.2z M130.3,30.5
	c0-0.3,0-0.5-0.1-0.7h1.2c0,0.2-0.1,0.5-0.1,0.7v0.6h2.2c0.5,0,0.9,0,1.2-0.1v1.1c-0.3,0-0.7-0.1-1.2-0.1h-5.3c-0.5,0-0.9,0-1.2,0.1
	V31c0.3,0,0.7,0.1,1.2,0.1h2.1V30.5z M129.1,32.4c0.4,1.1,0.6,1.8,1,3.6l-1,0.4c-0.2-1.3-0.6-2.5-1-3.6L129.1,32.4z"/>
<path class="st0" d="M136.6,30.9c-0.3,0-0.5,0-0.8,0v-1c0.2,0,0.5,0.1,0.9,0.1h1.6c0.4,0,0.6,0,0.9-0.1v1c-0.2,0-0.5,0-0.8,0h-0.5
	c-0.1,0.7-0.3,1.3-0.6,2h1.1c0.3,0,0.4,0,0.6,0c0,0.2,0,0.4,0,0.7v3.2c0,0.4,0,0.5,0,0.7h-0.9V37h-0.8V38h-1c0-0.3,0.1-0.6,0.1-0.9
	v-1.7c0-0.4,0-0.4,0-0.9c-0.2,0.3-0.3,0.5-0.6,0.9c-0.1-0.6-0.2-0.8-0.4-1.1c0.5-0.5,0.8-1.1,1.2-2c0.2-0.4,0.2-0.7,0.3-1.2H136.6z
	 M137.3,36.2h0.8v-2.4h-0.8V36.2z M140.2,30.9c-0.3,0-0.5,0-0.8,0v-1c0.2,0,0.5,0.1,1,0.1h2.7c0.4,0,0.7,0,1-0.1v1
	c-0.3,0-0.4,0-0.9,0v2.2h0.1c0.5,0,0.7,0,0.9,0v1c-0.3,0-0.5,0-0.9,0h-0.1v3c0,0.4,0,0.8,0.1,1.1h-1.1c0-0.4,0.1-0.7,0.1-1.1v-3
	h-1.1c0,0.8-0.1,1.3-0.2,1.8c-0.2,1-0.5,1.6-1.1,2.4c-0.2-0.3-0.5-0.5-0.9-0.7c0.6-0.6,0.9-1.2,1.1-2.1c0.1-0.4,0.1-0.8,0.2-1.5
	c-0.5,0-0.6,0-0.9,0v-1c0.3,0,0.4,0,0.9,0V30.9z M142.3,30.9h-1v2.2h1V30.9z"/>
<path class="st0" d="M150.2,34.2c0.5,0,0.7,0,1,0c0,0.2,0,0.4,0,0.8l0,1.8c0,0.2,0.1,0.3,0.4,0.3c0.7,0,0.8,0,0.8-0.2
	c0.1-0.2,0.1-0.7,0.1-1.4c0.4,0.2,0.5,0.2,1,0.3c-0.1,2.2-0.2,2.2-1.9,2.2c-1.1,0-1.4-0.2-1.4-0.8v-0.1l0-2h-1.4
	c-0.2,0.8-0.5,1.3-1.1,1.8c-0.6,0.5-1.3,0.9-2.2,1.2c-0.2-0.4-0.3-0.5-0.6-0.9c1.1-0.4,1.7-0.6,2.1-1c0.3-0.3,0.6-0.7,0.7-1.2h-1.3
	c-0.5,0-0.8,0-1,0v-1c0.3,0,0.6,0.1,1,0.1h1.5c0-0.2,0-0.4,0-0.6c0-0.2,0-0.3,0-0.5h1.1c0,0.2,0,0.2-0.1,0.7c0,0.1,0,0.2,0,0.3
	H150.2z M148.5,30.3c0-0.3,0-0.4-0.1-0.6h1.1c0,0.2,0,0.3,0,0.6v0.2h2.6c0.4,0,0.7,0,1,0c0,0.2,0,0.4,0,0.7v0.7c0,0.3,0,0.5,0,0.7
	h-0.6c-0.1,0.5-0.2,0.7-0.5,0.8c-0.2,0.1-0.6,0.1-1.5,0.1c-1,0-1.2-0.1-1.2-0.7v-1.4h-0.8c-0.1,0.6-0.2,0.8-0.5,1.2
	c-0.4,0.6-0.9,0.9-2.3,1.2c-0.2-0.3-0.3-0.5-0.5-0.8c1.1-0.2,1.5-0.3,1.8-0.6c0.3-0.2,0.4-0.5,0.5-0.9H146v1.1h-1c0-0.2,0-0.4,0-0.7
	v-0.6c0-0.3,0-0.5,0-0.7c0.3,0,0.6,0,1,0h2.4V30.3z M152.1,31.4h-1.8v1c0,0.2,0.1,0.2,0.6,0.2c0.5,0,0.6,0,0.7-0.2
	c0-0.1,0.1-0.3,0.1-0.5c0.2,0.1,0.3,0.1,0.5,0.1V31.4z"/>
<path class="st0" d="M155.3,37c0,0.5,0,0.9,0.1,1.1h-1.1c0-0.3,0.1-0.6,0.1-1.1v-6.1c0-0.5,0-0.7,0-1c0.3,0,0.5,0,0.9,0h1.7
	c0.5,0,0.7,0,0.9,0c0,0.3,0,0.5,0,0.9v1.4c0,0.4,0,0.6,0,0.8c-0.2,0-0.5,0-0.8,0h-1.7V37z M155.3,31.1h1.6v-0.5h-1.6V31.1z
	 M155.3,32.3h1.6v-0.5h-1.6V32.3z M156.9,35c0-0.3,0-0.4,0-0.8c-0.4,0-0.7,0-0.9,0v-0.8c0.2,0,0.5,0,0.9,0h2.7c0.4,0,0.7,0,1,0v0.8
	c-0.2,0-0.5,0-1,0V35h0.1c0.5,0,0.7,0,0.9,0v0.8c-0.3,0-0.5,0-0.9,0h-0.1v1.4c0,0.4,0,0.6,0,0.8h-1c0-0.2,0-0.4,0-0.8v-1.4h-1
	c-0.1,1-0.4,1.6-1.1,2.3c-0.2-0.3-0.4-0.4-0.7-0.6c0.6-0.5,0.9-0.9,1-1.6c-0.5,0-0.7,0-1,0V35C156.1,35,156.3,35,156.9,35L156.9,35z
	 M157.8,34.2c0,0.4,0,0.4,0,0.8h1v-0.8H157.8z M162.1,37c0,0.8-0.3,1-1.3,1c-0.2,0-0.3,0-0.6,0c-0.1-0.4-0.1-0.6-0.2-1
	c0.3,0,0.6,0.1,0.8,0.1c0.3,0,0.4,0,0.4-0.2V33h-1.8c-0.3,0-0.6,0-0.8,0c0-0.3,0-0.4,0-0.8v-1.4c0-0.3,0-0.6,0-0.9
	c0.3,0,0.5,0,0.9,0h1.8c0.5,0,0.7,0,0.9,0c0,0.3,0,0.6,0,1V37z M159.5,31.1h1.7v-0.5h-1.7V31.1z M159.5,32.3h1.7v-0.5h-1.7V32.3z"/>
<path class="st0" d="M165.8,33.6c-0.3,0-0.4,0-0.6,0v-0.4c-0.5,0.4-0.9,0.6-1.6,0.9c-0.2-0.3-0.3-0.6-0.5-0.8
	c0.7-0.3,1.1-0.5,1.8-0.9c-0.5-0.6-0.8-0.9-1.3-1.2l0.8-0.6c0.1,0.1,0.1,0.1,0.3,0.2v-1c0.2,0,0.4,0,0.8,0h1.7c0.4,0,0.6,0,0.8,0
	c0.1,0.4,0.2,0.6,0.6,1c0.3-0.3,0.4-0.4,0.5-0.6c0.1-0.2,0.2-0.2,0.2-0.3c0-0.1,0-0.1,0.1-0.1l0.8,0.5c0,0-0.1,0.2-0.4,0.4
	c-0.2,0.2-0.5,0.5-0.7,0.7c0.2,0.2,0.4,0.3,0.5,0.4c0.4-0.4,0.7-0.8,1-1.1l0.8,0.5c-0.1,0.1-0.1,0.1-0.3,0.3
	c-0.2,0.3-0.5,0.6-0.8,0.8c0.5,0.3,0.8,0.4,1.5,0.7c-0.2,0.3-0.3,0.4-0.5,0.9c-0.8-0.3-1-0.5-1.5-0.8v0.4c-0.3,0-0.4,0-0.9,0v1h1.5
	c0.5,0,0.7,0,1-0.1v1c-0.3,0-0.6-0.1-1-0.1h-1.5v1.4c0,0.2,0,0.2,0.1,0.2c0.1,0,0.3,0,0.6,0c0.5,0,0.7,0,0.8-0.2
	c0.1-0.1,0.1-0.4,0.2-0.9c0.4,0.2,0.6,0.3,1,0.3c-0.2,1.6-0.4,1.7-2.1,1.7c-1.3,0-1.5-0.2-1.5-0.8v-1.8h-1.2c-0.1,0.6-0.3,1-0.6,1.3
	c-0.5,0.6-1,1-2.1,1.4c-0.2-0.3-0.4-0.6-0.7-0.9c0.9-0.2,1.3-0.5,1.7-0.8c0.3-0.3,0.5-0.6,0.7-1h-1.2c-0.4,0-0.7,0-1,0.1v-1
	c0.3,0,0.5,0.1,1,0.1h1.3c0-0.1,0-0.2,0-0.3L165.8,33.6z M165.1,30.8c-0.2,0-0.4,0-0.6,0c0.5,0.4,0.7,0.6,1,0.9
	c0.4-0.4,0.6-0.6,0.9-1H165.1z M168.8,32.7h0.2c-0.7-0.5-1.1-1-1.6-1.7c-0.5,0.7-0.9,1.1-1.6,1.7h0.2H168.8z M166.8,34.4v0.2h1.1v-1
	h-1.1L166.8,34.4z"/>
<path class="st0" d="M172.9,32c0.6,0.4,1,0.6,1.6,1.1l-0.6,0.8c-0.6-0.5-1-0.8-1.6-1.2L172.9,32z M174.5,35.1
	c-0.3,0.8-0.5,1.3-0.9,2.1c-0.2,0.3-0.2,0.3-0.3,0.6c-0.1,0.1-0.1,0.1-0.1,0.2l-0.9-0.8c0.3-0.3,0.9-1.5,1.4-2.8L174.5,35.1z
	 M173.3,29.7c0.6,0.4,1,0.7,1.6,1.2l-0.6,0.8c-0.5-0.5-1-0.9-1.6-1.3L173.3,29.7z M174.5,36.8c0.1,0,0.2,0,0.3,0c0.1,0,0.4,0,0.7,0
	c0.5-0.8,0.8-1.7,1.1-2.5h-1c-0.4,0-0.7,0-1,0.1v-1c0.3,0,0.6,0.1,1,0.1h1.4V32H176c-0.4,0-0.7,0-1,0v-1c0.2,0,0.6,0.1,1,0.1h1.1
	v-0.4c0-0.5,0-0.7-0.1-1h1.1c0,0.3-0.1,0.5-0.1,1v0.4h1.5c0.4,0,0.7,0,0.9-0.1v1c-0.3,0-0.5,0-0.9,0h-1.5v1.4h1.8c0.4,0,0.7,0,1-0.1
	v1c-0.3,0-0.6-0.1-1-0.1h-2.2c-0.1,0.2-0.1,0.2-0.2,0.5c-0.2,0.5-0.4,1.1-0.8,1.8l-0.1,0.2c1.2-0.1,1.9-0.2,2.4-0.3
	c-0.3-0.5-0.5-0.7-0.9-1.3l0.8-0.4c0.8,1,1,1.3,1.9,2.8l-0.9,0.5c-0.2-0.4-0.3-0.6-0.4-0.8c-1.4,0.3-1.7,0.3-3.3,0.5
	c-1,0.1-1.2,0.1-1.5,0.2L174.5,36.8z"/>
<path class="st0" d="M186.4,29.8c0,0.2-0.1,0.6-0.1,0.9c0,1.5,0.2,2.5,0.9,3.6c0.4,0.7,0.8,1.2,1.5,1.7c0.5,0.5,0.8,0.7,1.4,1
	c-0.4,0.4-0.5,0.6-0.7,1c-1.1-0.8-1.7-1.3-2.3-2.2c-0.6-0.7-0.9-1.5-1.2-2.5c-0.2,0.7-0.3,1.2-0.7,1.9c-0.4,0.7-0.8,1.2-1.4,1.8
	c-0.5,0.4-0.8,0.7-1.4,1.1c-0.2-0.4-0.4-0.7-0.7-0.9c0.9-0.5,1.4-0.9,2-1.5c1.2-1.4,1.7-2.9,1.7-5.1c0-0.4,0-0.5,0-0.8H186.4z"/>
<path class="st0" d="M116.7,49.6c0.5-1.6,0.6-2.8,0.6-4.9l1.5,0.3c0,2-0.2,3.5-0.6,5.1L116.7,49.6z M121.1,56c0,1,0,1.6,0.1,2.3H119
	c0.1-0.6,0.1-1.5,0.1-2.3V43.2c0-0.8,0-1.3-0.1-2h2.2c-0.1,0.6-0.1,1.1-0.1,2v1.5l1.1-0.4c0.5,0.9,0.5,1,0.9,2.4l-0.5,0.2
	c0.5,0,0.8,0.1,1.5,0.1h2.7v-0.7h-2.1c-0.7,0-1,0-1.5,0.1v-1.6c0.5,0.1,0.8,0.1,1.6,0.1h2.1V44h-2.4c-1,0-1.3,0-1.8,0.1v-1.8
	c0.5,0.1,0.9,0.1,1.9,0.1h2.3c0-0.6,0-0.8-0.1-1.3h2.1c-0.1,0.4-0.1,0.7-0.1,1.3h2.8c1,0,1.4,0,1.9-0.1v1.8c-0.5-0.1-1-0.1-1.9-0.1
	h-2.9v0.7h2.6c0.8,0,1.1,0,1.5-0.1v1.6c-0.4-0.1-0.8-0.1-1.6-0.1h-2.6v0.7h3.2c0.9,0,1.3,0,1.8-0.1v1.8c-0.6-0.1-1.1-0.1-1.8-0.1
	h-7.8c-0.9,0-1.3,0-1.9,0.1V47l-0.6,0.3c-0.2-0.8-0.4-1.3-0.6-2V56z M125.1,56.1c0,0.9,0,1.5,0.1,2.1h-2.1c0.1-0.6,0.1-1,0.1-2.1
	v-5.3c0-0.7,0-1-0.1-1.6c0.4,0,0.8,0.1,1.5,0.1h6.5c0.8,0,1.3,0,1.7-0.1c-0.1,0.4-0.1,1-0.1,1.9v5.2c0,1.4-0.5,1.8-2.4,1.8
	c-0.4,0-0.8,0-1.7-0.1c-0.1-0.8-0.2-1.1-0.4-1.8c0.8,0.1,1.3,0.2,1.8,0.2c0.6,0,0.7-0.1,0.7-0.4v-0.6h-5.6V56.1z M130.7,50.8h-5.6
	v0.8h5.6V50.8z M130.7,53.1h-5.6v0.8h5.6V53.1z"/>
<path class="st0" d="M142.1,46.1c0.8,0,1.1,0,1.6-0.1v2c-0.4-0.1-0.6-0.1-1-0.1c-0.2,0.9-0.3,1.2-0.6,2h0.2c0.7,0,1,0,1.4-0.1v2
	c-0.5-0.1-0.9-0.1-1.6-0.1h-1.4v1.5h1.3c0.7,0,1.1,0,1.5-0.1v1.9c-0.5-0.1-0.8-0.1-1.5-0.1h-1.3v1.3c0,0.6,0,1.3,0.1,1.9h-2
	c0.1-0.6,0.1-1.2,0.1-1.9V55h-1.3c-0.7,0-1,0-1.5,0.1v-1.9c0.5,0.1,0.8,0.1,1.5,0.1h1.3v-1.5h-1.6c-0.7,0-1.1,0-1.6,0.1v-2
	c0.5,0.1,0.8,0.1,1.6,0.1h0.2c-0.1-0.7-0.2-1.2-0.5-2c-0.6,0-0.9,0-1.3,0.1v-2c0.5,0.1,0.9,0.1,1.6,0.1h1.7v-1.4h-1.3
	c-0.7,0-1,0-1.5,0.1v-1.9c0.4,0.1,0.8,0.1,1.5,0.1h1.3v-0.3c0-0.5,0-1.1-0.1-1.4h2c-0.1,0.4-0.1,0.8-0.1,1.4v0.3h1.1
	c0.7,0,1.1,0,1.5-0.1v1.9c-0.5-0.1-0.9-0.1-1.5-0.1h-1.1v1.4H142.1z M140.3,50c0.2-0.6,0.4-1.3,0.6-2h-2.2c0.3,0.9,0.3,1.2,0.5,2
	H140.3z M152,48.6c-0.1,0.2-0.1,0.4-0.2,0.8c-0.4,1.7-0.9,3.3-1.6,4.6c0.7,0.9,1.3,1.4,2.5,2.1c-0.6,0.9-0.8,1.2-1.1,2
	c-1.1-0.8-1.7-1.4-2.5-2.4c-0.6,0.9-1.3,1.6-2.2,2.4c-0.4-0.6-0.6-1-1-1.6c0,0.7,0.1,1.1,0.1,1.7H144c0.1-0.8,0.1-1.2,0.1-2.2V43.7
	c0-0.7,0-1.4-0.1-1.9c0.5,0.1,1,0.1,1.7,0.1h4.5c0.8,0,1.4,0,1.7-0.1c-0.1,0.5-0.1,0.8-0.1,1.2c-0.2,3.4-0.5,3.8-2.5,3.8
	c-0.5,0-0.8,0-1.7-0.1c-0.1-0.8-0.2-1.1-0.4-1.7c0.7,0.1,1.5,0.2,1.9,0.2c0.6,0,0.7-0.2,0.7-1.5h-4v4h3.5c0.9,0,1.4,0,1.7-0.1
	L152,48.6z M145.9,56.2c0.8-0.7,1.5-1.3,2-2.1c-0.8-1.3-1.2-2.3-1.7-4.7h-0.3V56.2z M147.9,49.4c0.3,1.3,0.6,2,1.1,2.9
	c0.4-0.9,0.6-1.6,0.9-2.9H147.9z"/>
<path class="st0" d="M153.8,48.2c0.5,0.1,0.8,0.1,1.4,0.1h1.3c0.6,0,1,0,1.4-0.1c-0.1,0.6-0.1,1-0.1,2v3.9c0.3,0.5,0.5,0.8,0.9,1
	c0.4,0.2,0.7,0.4,0.9,0.5c0.8,0.2,2,0.3,3.7,0.3c3,0,4-0.1,7.7-0.5c-0.2,0.7-0.4,1.4-0.5,2.2c-2.4,0.1-4.3,0.1-7.4,0.1
	c-1.9,0-3.3-0.2-4.1-0.5c-0.9-0.3-1.4-0.7-2.1-1.6c-0.1,0.1-0.2,0.2-0.3,0.3c-0.6,0.7-0.6,0.7-2,1.8l-1-2c0.7-0.3,1.5-1,2.4-1.8
	v-3.9H155c-0.5,0-0.8,0-1.2,0.1V48.2z M155.2,41.4c1.3,1.2,2.3,2.2,3.2,3.3l-1.5,1.5c-1.1-1.5-1.8-2.3-3.1-3.4L155.2,41.4z
	 M162.6,45.2c-1-0.7-1-0.7-1.5-1l1.4-0.8h-1.7c-0.9,0-1.3,0-1.9,0.1v-1.9c0.6,0.1,1.2,0.1,2.2,0.1h6c1.2,0,1.7,0,2.1-0.1l0.9,1.1
	c-0.3,0.2-0.4,0.3-0.9,0.7c-0.7,0.6-1.6,1.3-2.4,1.8h1.5c0.9,0,1.4,0,1.9-0.1c-0.1,0.5-0.1,1.1-0.1,2.1v5.7c0,1.1-0.1,1.4-0.3,1.7
	c-0.3,0.3-0.8,0.4-1.9,0.4c-0.2,0-0.5,0-0.8,0c-0.1-0.7-0.2-1.2-0.4-1.8c0.5,0.1,0.9,0.1,1.2,0.1c0.4,0,0.4,0,0.4-0.5v-0.7h-2.8v0.8
	c0,1,0,1.5,0.1,2h-2c0.1-0.5,0.1-1.1,0.1-2v-0.8h-2.5v0.9c0,1.1,0,1.6,0.1,2h-2.1c0.1-0.5,0.1-1.1,0.1-2v-5.8c0-1.1,0-1.5-0.1-2.2
	c0.6,0.1,1.1,0.1,2.1,0.1H162.6z M161.1,47.9h2.5v-1.2h-2.5V47.9z M161.1,50.7h2.5v-1.2h-2.5V50.7z M162.7,43.4
	c0.7,0.5,0.8,0.6,1.9,1.4c1.3-0.9,1.3-0.9,1.8-1.4H162.7z M165.4,47.9h2.8v-1.2h-2.8V47.9z M168.1,49.4h-2.8v1.2h2.8V49.4z"/>
<path class="st0" d="M176,56.1c0,0.8,0,1.4,0.1,2.1h-2.1c0.1-0.7,0.1-1.3,0.1-2.2v-5.5c0-0.6,0-0.7,0.1-2c-0.4,0.7-0.6,1-1.4,2
	c-0.3-0.9-0.5-1.4-0.8-2.2c1.2-1.3,2.1-2.8,2.8-4.7c0.4-1.1,0.6-1.7,0.7-2.5l2,0.7c-0.1,0.2-0.2,0.6-0.4,1.1
	c-0.4,1.1-0.6,1.7-1.1,2.7V56.1z M176.9,44.4c0.5,0.1,0.9,0.1,1.5,0.1h9c0.7,0,1.3,0,1.7-0.1v1.9c-0.5-0.1-1-0.1-1.7-0.1h-9
	c-0.6,0-1.1,0-1.5,0.1V44.4z M179.8,58.2h-2c0.1-0.5,0.1-1,0.1-1.7v-2.6c0-0.6,0-1.1-0.1-1.6c0.4,0,0.9,0.1,1.5,0.1h7
	c0.7,0,1.2,0,1.6-0.1c-0.1,0.5-0.1,0.9-0.1,1.6v2.6c0,0.7,0,1.2,0.1,1.7h-2v-0.8h-6.1V58.2z M187.8,48.9c-0.4-0.1-0.8-0.1-1.4-0.1
	h-7.1c-0.6,0-0.9,0-1.3,0.1v-1.7c0.4,0.1,0.7,0.1,1.3,0.1h7c0.6,0,1,0,1.5-0.1V48.9z M187.8,51.5c-0.5-0.1-0.8-0.1-1.4-0.1h-7.1
	c-0.6,0-0.9,0-1.3,0.1v-1.7c0.4,0.1,0.7,0.1,1.3,0.1h7.1c0.6,0,1,0,1.4-0.1V51.5z M187.8,43.6c-0.5-0.1-1-0.1-1.8-0.1h-6.2
	c-0.7,0-1.2,0-1.7,0.1v-1.8c0.5,0.1,1,0.1,1.8,0.1h5.9c0.9,0,1.5,0,2-0.1V43.6z M185.9,54.1h-6.1v1.5h6.1V54.1z"/>
<path class="st0" d="M192.5,43.7c-0.7,0-1,0-1.6,0.1v-2c0.5,0.1,1.1,0.1,1.8,0.1h3.2c0.8,0,1.2,0,1.8-0.1v2
	c-0.5-0.1-0.9-0.1-1.6-0.1h-0.9c-0.2,1.5-0.6,2.6-1.2,4h2.2c0.6,0,0.7,0,1.1-0.1c-0.1,0.5-0.1,0.7-0.1,1.3v6.3c0,0.8,0,1,0.1,1.4
	h-1.8v-0.8h-1.6v1.8h-2c0.1-0.5,0.1-1.1,0.1-1.9v-3.4c0-0.7,0-0.8,0-1.8c-0.3,0.6-0.6,1-1.2,1.7c-0.2-1.2-0.3-1.5-0.7-2.3
	c1-1,1.7-2.1,2.3-3.9c0.3-0.9,0.5-1.4,0.6-2.5H192.5z M193.9,54.3h1.6v-4.8h-1.6V54.3z M199.8,43.7c-0.6,0-1,0-1.5,0.1v-2
	c0.4,0.1,1.1,0.1,2,0.1h5.3c0.8,0,1.4,0,2-0.1v2c-0.6-0.1-0.8-0.1-1.8-0.1V48h0.1c1,0,1.3,0,1.8-0.1V50c-0.5-0.1-0.9-0.1-1.8-0.1
	h-0.1v6c0,0.8,0,1.5,0.1,2.3h-2.2c0.1-0.8,0.1-1.4,0.1-2.3v-6h-2.1c-0.1,1.6-0.2,2.6-0.4,3.7c-0.5,2-1,3.2-2.3,4.8
	c-0.5-0.6-1-0.9-1.7-1.3c1.1-1.3,1.7-2.5,2.1-4.2c0.2-0.8,0.3-1.7,0.4-2.9c-0.9,0-1.2,0-1.8,0.1v-2.1c0.6,0.1,0.9,0.1,1.8,0.1V43.7z
	 M203.8,43.7h-2.1V48h2.1V43.7z"/>
<path class="st0" d="M219.7,50.3c1,0,1.4,0,1.9-0.1c0,0.5-0.1,0.8-0.1,1.7l-0.1,3.6c0,0.5,0.1,0.6,0.8,0.6c1.4,0,1.6-0.1,1.7-0.4
	c0.1-0.4,0.2-1.4,0.2-2.9c0.7,0.3,1,0.4,1.9,0.6c-0.3,4.4-0.4,4.5-3.8,4.5c-2.2,0-2.8-0.4-2.8-1.7v-0.1l0.1-4h-2.7
	c-0.4,1.6-1,2.7-2.1,3.7c-1.1,1-2.5,1.8-4.4,2.5c-0.4-0.8-0.6-1.1-1.2-1.8c2.2-0.7,3.3-1.2,4.2-2c0.7-0.6,1.2-1.3,1.5-2.3h-2.5
	c-1,0-1.5,0-2.1,0.1v-2c0.6,0.1,1.1,0.1,2,0.1h2.9c0.1-0.5,0.1-0.8,0.1-1.1c0-0.4,0-0.7-0.1-1h2.2c-0.1,0.3-0.1,0.5-0.2,1.5
	c0,0.3,0,0.4-0.1,0.7H219.7z M216.4,42.5c0-0.5,0-0.8-0.1-1.2h2.2c-0.1,0.4-0.1,0.7-0.1,1.2V43h5.2c0.8,0,1.3,0,2-0.1
	c-0.1,0.4-0.1,0.8-0.1,1.4v1.3c0,0.6,0,0.9,0.1,1.4h-1.2c-0.1,1-0.4,1.5-0.9,1.7c-0.4,0.2-1.3,0.3-3,0.3c-1.9,0-2.4-0.3-2.4-1.4
	v-2.7h-1.5c-0.3,1.2-0.5,1.7-1,2.4c-0.8,1.2-1.9,1.7-4.5,2.4c-0.3-0.6-0.6-1-1.1-1.7c2.2-0.4,3-0.7,3.7-1.3c0.5-0.5,0.8-1,1-1.8
	h-3.1v2.1h-2c0.1-0.4,0.1-0.8,0.1-1.4v-1.3c0-0.6,0-0.9-0.1-1.4c0.7,0.1,1.2,0.1,2,0.1h4.9V42.5z M223.6,44.7h-3.7v2
	c0,0.4,0.1,0.5,1.2,0.5c0.9,0,1.3-0.1,1.4-0.3c0.1-0.2,0.1-0.5,0.1-1c0.4,0.2,0.6,0.2,1,0.3V44.7z"/>
<path class="st0" d="M242.8,42.1c-0.6,1-0.8,1.4-1.6,2.3c0.2,0.2,0.3,0.3,0.5,0.6c0.4-0.5,0.6-0.8,1.1-1.8l1.3,1
	c-0.4,0.5-0.4,0.5-1.3,1.7c-0.5,0.6-0.9,1.1-1.5,1.7c0.6,0,0.8-0.1,1.3-0.1c-0.1-0.3-0.2-0.4-0.3-0.7l1.2-0.4c0.5,1,0.7,1.5,1.1,2.9
	l-1.3,0.4c-0.1-0.4-0.1-0.5-0.2-0.9c-0.4,0.1-0.8,0.1-1.3,0.2c0.4,0.3,0.5,0.3,1,0.8l-0.7,0.7h0.4c1.1,0,1.4,0,1.9-0.1v1.9
	c-0.6-0.1-1.2-0.1-1.9-0.1h-0.6l1.4,0.9c-0.7,0.9-1.2,1.5-2,2.2c0.5,0.7,1,1.1,1.3,1.1c0.3,0,0.5-0.5,0.7-2.2c0.4,0.5,0.9,0.8,1.4,1
	c-0.2,1.3-0.4,2.1-0.8,2.6c-0.3,0.4-0.6,0.6-1.2,0.6c-0.9,0-1.8-0.6-2.8-2c-1.3,0.9-2.4,1.5-4,2.1c-0.3-0.7-0.5-1-1-1.6
	c1.7-0.4,2.8-0.9,4.2-1.8c-0.4-0.9-0.6-1.5-0.9-2.8h-2.4c0,0.3,0,0.4-0.1,0.6c0.6,0.7,1.1,1,2,1.5c-0.2,0.3-0.4,0.5-0.5,0.8
	c-0.3,0.5-0.3,0.5-0.4,0.7c-0.6-0.4-1.1-0.8-1.5-1.3c-0.5,1.6-1.1,2.6-2.3,3.8c-0.5-0.6-0.7-0.8-1.5-1.3c1.5-1.1,2.2-2.6,2.4-4.9
	c-0.7,0-1,0-1.4,0.1v-1.9c0.4,0.1,0.7,0.1,1.5,0.1h3.8c-0.1-0.5-0.1-0.7-0.1-1l-1,0.4c0-0.3-0.1-0.4-0.1-0.6
	c-0.5,0.1-0.8,0.1-1.3,0.2c-1.4,0.2-2.4,0.3-2.6,0.4l-0.1-0.6c-0.3,0.5-0.4,0.8-0.5,1.3c-0.4-0.6-0.6-1.1-0.9-1.7
	c0,0.5,0.1,1.6,0.1,2.2v5.3c0,1.1,0,1.8,0.1,2.3h-2c0.1-0.5,0.1-1.3,0.1-2.3v-3.2c0-0.8,0-1.5,0.1-3c-0.6,1.9-1,3.1-1.6,4.1
	c-0.2-0.8-0.5-1.5-0.9-2c0.5-0.8,0.8-1.4,1.4-2.9c0.2-0.5,0.3-0.9,0.8-2.5h-0.4c-0.5,0-0.9,0-1.3,0.1v-2c0.3,0.1,0.6,0.1,1.3,0.1
	h0.6v-1.5c0-0.9,0-1.5-0.1-1.9h2c-0.1,0.4-0.1,0.9-0.1,1.9v1.5h0.3c0.4,0,0.7,0,0.9,0c-0.1-0.1-0.2-0.2-0.4-0.4l1.1-1.3l0.4,0.4
	c0.6-0.8,0.9-1.4,1.2-2.2l1.5,0.8c-0.6,1.1-0.9,1.7-1.6,2.6c0.2,0.2,0.3,0.3,0.4,0.6c0.5-0.8,0.6-1,1-1.7l1.3,0.9v-0.9
	c0-1.3,0-1.5-0.1-2.1h2c-0.1,0.4-0.1,0.7-0.1,1.2c0,0.1,0,0.3,0,0.6v0.6l0.6-0.8c0.2,0.2,0.3,0.3,0.4,0.4c0.5-0.7,0.8-1.3,1.1-2
	L242.8,42.1z M232.7,46.6c-0.5-0.1-0.7-0.1-1.1-0.1h-0.3c0.3,0.7,0.6,1.1,1.1,1.8l-0.1-0.4c0.1,0,0.2,0,0.3,0h0.3
	c0.6-0.7,0.8-1,1.2-1.4c-0.6-0.7-0.9-1.2-1.5-1.7V46.6z M237.1,46.5c0.3,0.6,0.3,0.8,0.5,1.2c-0.1-1.5-0.1-2.4-0.1-3.2
	c-0.2,0.3-0.3,0.4-0.4,0.6c-0.7,1-1.5,2.1-2.1,2.7c0.7-0.1,0.7-0.1,1.3-0.1c-0.1-0.3-0.2-0.4-0.3-0.8L237.1,46.5z M239.2,44.5
	c0,1.7,0,1.7,0.1,3h0.3c0.7-0.8,0.7-0.8,1.2-1.3C240.2,45.6,239.8,45.1,239.2,44.5 M241,48.9c-0.2,0-0.3,0-0.4,0
	c-0.3,0.1-0.3,0.1-0.8,0.1c0,0-0.2,0-0.5,0c0,0.4,0.1,0.5,0.1,1.2h2.1c-0.4-0.4-0.6-0.6-1.2-0.8L241,48.9z M239.9,51.9
	c0.1,0.7,0.3,1,0.6,1.7c0.9-0.8,1.1-1.1,1.4-1.7H239.9z"/>
<path class="st0" d="M252,50.9c0-0.5,0-0.9,0-1.3c-0.4,0.4-0.6,0.6-1,1.3c-0.5-0.6-0.7-1.1-1.1-2c0.1,0.6,0.1,1.4,0.1,2.7V56
	c0,1,0,1.7,0.1,2.2h-2.1c0.1-0.6,0.1-1.3,0.1-2.2v-3.6c0-0.7,0.1-1.7,0.1-2.5c-0.7,2-0.9,2.6-1.6,3.7c-0.3-0.6-0.6-0.9-1.2-1.6
	c1.1-1.6,2-3.6,2.4-5.7h-0.6c-0.6,0-0.9,0-1.2,0.1v-2c0.3,0.1,0.6,0.1,1.2,0.1h0.8v-1.5c0-1,0-1.5-0.1-1.9h2c-0.1,0.5-0.1,1-0.1,1.9
	v1.5h0.4c0.5,0,0.7,0,1.1-0.1v2c-0.3-0.1-0.6-0.1-1.1-0.1h-0.3c0.3,0.7,0.6,1.3,1.1,2v-1.6c0.4,0.1,0.9,0.1,1.6,0.1h1v-0.8h-0.4
	c-0.6,0-1.1,0-1.4,0.1v-1.5c0.4,0.1,0.8,0.1,1.4,0.1h0.4V44h-0.8c-0.6,0-1.1,0-1.5,0.1v-1.6c0.5,0.1,0.9,0.1,1.5,0.1h0.8
	c0-0.7,0-1-0.1-1.3h2c-0.1,0.3-0.1,0.6-0.1,1.3h2.4c0-0.8,0-1-0.1-1.3h2c-0.1,0.4-0.1,0.7-0.1,1.3h1.2c0.6,0,1,0,1.5-0.1v1.6
	c-0.4-0.1-0.8-0.1-1.5-0.1h-1.2v0.8h0.8c0.5,0,1,0,1.4-0.1v1.5c-0.4-0.1-0.7-0.1-1.4-0.1h-0.8V47h1.3c0.7,0,1.2,0,1.7-0.1v1.7
	c-0.6-0.1-0.9-0.1-1.7-0.1h-3.5v0.8h2.4c0.8,0,1.3,0,1.7-0.1c-0.1,0.5-0.1,1-0.1,1.8v2.7c0.6,0,0.8,0,1.2-0.1v1.7
	c-0.4-0.1-0.7-0.1-1.2-0.1v1.1c0,1.5-0.4,1.7-2.4,1.7c-0.4,0-0.9,0-1.4,0c-0.1-0.7-0.1-1.1-0.3-1.6c0.7,0.1,1.2,0.1,1.6,0.1
	c0.6,0,0.8-0.1,0.8-0.4v-0.8h-6.1V56c0,1.3,0,1.6,0.1,2.3h-2c0.1-0.7,0.1-1.1,0.1-2.3v-0.7c-0.5,0-0.8,0-1.1,0.1v-1.7
	c0.3,0.1,0.6,0.1,1.1,0.1V50.9z M253.7,49.2h2.2v-0.8H253c-0.7,0-1.2,0-1.6,0.1c0.2,0.3,0.3,0.3,0.6,0.6
	C252.5,49.2,252.9,49.2,253.7,49.2 M255.9,50.7h-2.1v0.8h2.1V50.7z M255.9,52.9h-2.1v0.8h2.1V52.9z M258,44h-2.4v0.8h2.4V44z
	 M258,46.2h-2.4V47h2.4V46.2z M259.9,50.7h-2.2v0.8h2.2V50.7z M259.9,52.9h-2.2v0.8h2.2V52.9z"/>
<path class="st0" d="M25.1,58.6l11.1-28.7h-6.6l-6.2,15.7l-2.7-12.4c-0.5-2.4-1.5-3.2-4-3.2h-5.1L0,58.6h7l7.6-20.3L18.1,56
	c0.4,1.9,1.3,2.5,3.6,2.5H25.1z"/>
<path class="st0" d="M117.7,5.2c-8.5-10.9-35.4-4.2-60.1,15c-3.5,2.7-6.7,5.5-9.7,8.4h1.4c1.7-1.5,3.5-3,5.4-4.5
	C75.6,7.9,98.4,2.2,105.6,11.4c3.1,4.1,2.8,10.3-0.4,17.4h3.6l-3.2,8.7h-5.4c-1.8,2.6-3.9,5.2-6.2,7.8l-5.2,14.1
	C113.2,40.3,126.2,16.1,117.7,5.2"/>
<path class="st0" d="M78.5,59.2c-20.3,14.9-41.7,19.9-48.6,11c-5.6-7.2,0-21.5,12.8-35.2l0.7-1.9c-15.1,16.1-21.8,33-15.1,41.5
	c8.4,10.9,35.2,4.2,59.8-14.8h-9.9L78.5,59.2z"/>
<path class="st0" d="M71.8,51.9c-3.7,0.2-6.9,0.2-10-0.1c-2.3-0.2-3.3-2-3.3-3.8c0.1-2.8,2.5-7.7,4-9.3c1.5-1.6,2.7-2.2,5.1-2.4
	c2.2-0.2,4.9-0.2,8.8-0.1l2.2-6c-3.7-0.3-9.1-0.3-11.6-0.1c-3.8,0.4-6.8,1.6-9.1,4.5c-3.6,4.3-6.7,11.5-6.8,16.7
	c-0.1,4.1,2.7,6.8,6,7.1c4,0.4,8.5,0.3,12.4,0L71.8,51.9z"/>
<polygon class="st0" points="82.2,30.2 79.9,36.2 88.8,36.2 80.2,58.6 87.6,58.6 95.9,36.2 104.6,36.2 106.9,30.2 "/>
<polygon class="st0" points="35,58.6 42.2,58.6 53,29.9 46.1,29.9 "/>
<g>
</g>
<g>
</g>
<g>
</g>
<g>
</g>
<g>
</g>
<g>
</g>
</svg>
