<svg xmlns="http://www.w3.org/2000/svg" width="184.642" height="36" viewBox="0 0 184.642 36">
  <g id="logo_wide" transform="translate(0 0)">
    <g id="内容" transform="translate(0 0)">
      <path id="パス_10534" data-name="パス 10534" d="M42.943,15.569a16.179,16.179,0,0,0-4.451-8.778h0a13.168,13.168,0,0,0-6.01.658c-3.869,1.208-7.83,5.245-9.986,9.818h0a.275.275,0,0,1-.306.168.26.26,0,0,1-.184-.275c.551-6.882,2.676-12.418,7.723-15.63h0c.091,0,0-.152,0-.184A25.769,25.769,0,0,0,21.41,0h0A25.714,25.714,0,0,0,13.24,1.332c-.1,0-.119.12,0,.182h0c5.05,3.211,7.159,8.747,7.772,15.614a.251.251,0,0,1-.49.107h0c-2.172-4.588-6.12-8.61-9.986-9.818a13.182,13.182,0,0,0-6.01-.658h0A16.18,16.18,0,0,0,0,15.569c0,.107,0,.152.152.107h0a20.217,20.217,0,0,1,11.7-1.529A17.465,17.465,0,0,1,19.5,17.725a.24.24,0,0,1,0,.306.275.275,0,0,1-.306.091C14.85,16.592,6.96,17.22.84,23.2a18.352,18.352,0,0,0,7.646,8.64s.138,0,.152-.077c1.453-7.4,6.84-11.88,12.769-11.88s11.378,4.588,12.72,12.036A.1.1,0,0,0,34.3,32a18.351,18.351,0,0,0,7.646-8.64h0c-6.12-5.98-13.932-6.546-18.275-5.077a.26.26,0,0,1-.306-.091.24.24,0,0,1,0-.306A17.465,17.465,0,0,1,31.008,14.3a20.217,20.217,0,0,1,11.7,1.529h0C42.821,15.72,42.96,15.676,42.943,15.569Z" transform="translate(0 0)" fill="#caa82b"/>
      <path id="パス_10535" data-name="パス 10535" d="M16.473,14H12.909c-.12,0-.12.077-.107.168l1.651,14.177a.245.245,0,1,0,.49,0L16.6,14.168C16.611,14,16.611,14,16.473,14Z" transform="translate(6.772 7.41)" fill="#9c9e9c"/>
      <path id="パス_10536" data-name="パス 10536" d="M126.69,10.826h-7.644V9.587L122.915,6.6V5.55h-9.773v.932h7.034L118.65,8.1H117v2.723H109.35v1.009H117v5.108a1.147,1.147,0,0,1-1.224,1.116h-1.3v.932h2.218a2.615,2.615,0,0,0,.9-.168,2.309,2.309,0,0,0,.535-.306,2.264,2.264,0,0,0,.4-.367,1.714,1.714,0,0,0,.24-.336,2.432,2.432,0,0,0,.352-1.254V11.912h7.646V10.9Z" transform="translate(57.879 2.938)" fill="#231815"/>
      <path id="パス_10537" data-name="パス 10537" d="M109.57,8.73h2V5.442H124.1V8.669h2V4.448h-3.055V1.817h0l-2.018-.4h0V4.386h-2.782V1.817h0l-2-.4h0V4.386h-1.882V1.817h0l-2-.4h0V4.386H109.7V8.669Z" transform="translate(57.995 0.752)" fill="#231815"/>
      <path id="パス_10538" data-name="パス 10538" d="M53.865,21.471h0v-1.32a14.88,14.88,0,0,1-5.46-6.12,20.492,20.492,0,0,1-2-7.211H53.9V5.825H46.249V1.682l-2-.322h0v4.4H36.6V6.7h7.56a20.492,20.492,0,0,1-2.125,7.172,14.88,14.88,0,0,1-5.46,6.12h0v1.32h0a15.553,15.553,0,0,0,7.249-6.728,21.41,21.41,0,0,0,1.392-3.136,19.882,19.882,0,0,0,1.392,3.136,15.553,15.553,0,0,0,7.264,6.9Z" transform="translate(19.359 0.72)" fill="#231815"/>
      <path id="パス_10539" data-name="パス 10539" d="M112.508,21.471h0v-1.32a14.88,14.88,0,0,1-5.46-6.12,20.494,20.494,0,0,1-2.125-7.172h7.56V5.825h-7.646V1.682l-2-.322h0v4.4H95.18V6.7h7.56a20.492,20.492,0,0,1-2.13,7.174,14.88,14.88,0,0,1-5.46,6.12h0v1.32h0a15.63,15.63,0,0,0,7.31-6.728,21.41,21.41,0,0,0,1.392-3.136,19.881,19.881,0,0,0,1.392,3.136,15.553,15.553,0,0,0,7.264,6.9Z" transform="translate(50.362 0.72)" fill="#231815"/>
      <path id="パス_10540" data-name="パス 10540" d="M67.157,19.206a16.225,16.225,0,0,1-2.111-1.882,10.964,10.964,0,0,1-.8-1.04,15.018,15.018,0,0,0,2.462-8.52V5.686H59.418V2.934h8.238V1.94H57.293V8.271c0,5.842-.184,7.982-1.27,10.032a3.732,3.732,0,0,1-.7.932h0V20.6h0a3.36,3.36,0,0,0,1.238-.734,8.12,8.12,0,0,0,2.186-4.282,34.592,34.592,0,0,0,.673-7.31V6.62h5.215V7.645a16.2,16.2,0,0,1-1.361,6.637A15.96,15.96,0,0,1,61.927,8.15H59.846a14.28,14.28,0,0,0,.24,2.676,14.254,14.254,0,0,0,2.1,5.46c-.229.306-.458.612-.7.887A14.374,14.374,0,0,1,60.1,18.518l-.383.336c-.336.275-.673.551-1.025.8v1.529h.091c.383-.2.764-.428.994-.581l.4-.24a15.156,15.156,0,0,0,2.83-2.447l.214-.24.352.4a15.079,15.079,0,0,0,3.487,2.844l.49.26h0V19.634h0Z" transform="translate(29.281 1.028)" fill="#231815"/>
      <path id="パス_10541" data-name="パス 10541" d="M56.956,11.116a16.7,16.7,0,0,0-1.285-1.744l-.428-.551,2.7-5.934h0V1.94h-6.12V21.1h2V16.759a4.756,4.756,0,0,0,3.059-.688,2.768,2.768,0,0,0,.9-2.263,5.215,5.215,0,0,0-.826-2.692ZM53.9,2.934h1.856L53.9,8.149Zm1.361,12.342a2.83,2.83,0,0,1-1.361.29V9.586l.107.107a7.646,7.646,0,0,1,1.712,4.114c0,1.147-.35,1.392-.458,1.469Z" transform="translate(27.427 1.028)" fill="#231815"/>
      <path id="パス_10542" data-name="パス 10542" d="M66.64,10.42h0a13.058,13.058,0,0,0,1.193-.857l.214-.168a15.079,15.079,0,0,0,4.588-7.188h0L70.662,1.9a15.14,15.14,0,0,1-3.95,7.127h0v1.345h0Z" transform="translate(35.272 1.007)" fill="#231815"/>
      <path id="パス_10543" data-name="パス 10543" d="M75.105,1.82H73.76a14.268,14.268,0,0,0,5.857,8.687h0V7.754h0A15.37,15.37,0,0,1,75.105,1.82Z" transform="translate(39.041 0.964)" fill="#231815"/>
      <path id="パス_10544" data-name="パス 10544" d="M71.8,6.9l-4.42,9.33h0V18h14.3V16.231h0L79.5,11.4h-2.28L79.7,16.6H69.521l4.588-9.68H71.844S71.8,6.886,71.8,6.9Z" transform="translate(35.663 3.651)" fill="#231815"/>
      <path id="パス_10545" data-name="パス 10545" d="M81.13,6.82H97.554V5.825H90.413V1.682l-2-.322h0V5.75H81.13Z" transform="translate(42.942 0.72)" fill="#231815"/>
      <path id="パス_10546" data-name="パス 10546" d="M98.222,17.794h-4.8L95.35,5.835H93.314L91.387,17.824H87.456L85.927,5.59H83.755l1.606,12.24H80.85v.932H98.222V17.8Z" transform="translate(42.794 2.959)" fill="#231815"/>
      <path id="パス_10547" data-name="パス 10547" d="M121.334,18.7h0l-1.147,3.84h0l-1.177-3.84H118l1.68,5.108h0l-.642,1.912h.84l2.248-7.05h0Z" transform="translate(62.457 9.884)" fill="#231815"/>
      <path id="パス_10548" data-name="パス 10548" d="M113.187,20.959c-.642-.306-1.132-.52-1.132-1.04a.7.7,0,0,1,.764-.7.764.764,0,0,1,.857.642,2.559,2.559,0,0,1,0,.29h.749v-.382c-.138-.764-.642-1.116-1.606-1.116s-1.7.428-1.7,1.345.673,1.147,1.44,1.529,1.025.505,1.025,1.132-.29.8-.857.8a.826.826,0,0,1-.918-.81v-.259h-.749a3.247,3.247,0,0,0,0,.336c0,.871.642,1.32,1.7,1.32s1.774-.48,1.774-1.529S113.89,21.31,113.187,20.959Z" transform="translate(58.782 9.872)" fill="#231815"/>
      <path id="パス_10549" data-name="パス 10549" d="M96.907,17.25h0v4.8c0,1.009-.107,1.988-1.422,1.988s-1.44-.979-1.44-1.943V17.51h0l-.887-.24h0V22.18c0,1.637.551,2.585,2.37,2.585s2.386-1.07,2.386-2.64v-4.6Z" transform="translate(49.309 9.131)" fill="#231815"/>
      <path id="パス_10550" data-name="パス 10550" d="M107.463,18.65c-1.927,0-2,1.529-2,2.891s.214,2.478,1.942,2.478c1.376,0,1.85-.658,1.9-1.7h-.764a.989.989,0,0,1-1.08,1.116c-.826,0-.994-.566-1.025-1.27a1.723,1.723,0,0,0,0-.214v-.48h2.92v-.2C109.348,19.965,109.348,18.65,107.463,18.65Zm1.009,2.248h-2.08V20.27a1.025,1.025,0,0,1,1.08-1.009c.673,0,.918.49.979,1.009a4.4,4.4,0,0,1,0,.628Z" transform="translate(55.819 9.872)" fill="#231815"/>
      <path id="パス_10551" data-name="パス 10551" d="M99.569,18.7a1.7,1.7,0,0,0-1.529.81v-.734h0l-.78-.12v5.28h.826V20.87c0-.688.322-1.529,1.147-1.529s.871.734.871,1.361v3.227h.84V20.3C101.053,19.323,100.655,18.7,99.569,18.7Z" transform="translate(51.479 9.872)" fill="#231815"/>
      <path id="パス_10552" data-name="パス 10552" d="M105.6,18.75h0l-1.284,4.1h0l-1.254-4.1h-.81l1.529,5.093h.979l1.529-5.093Z" transform="translate(54.12 9.925)" fill="#231815"/>
      <path id="パス_10553" data-name="パス 10553" d="M117.337,23.118V19.783h.96V19.37h-.96V18.116l-.84-.336v1.453h-.8v.413h.8v3.426c0,.9.214,1.27,1.27,1.27a4.588,4.588,0,0,0,.642,0v-.628h-.4C117.489,23.836,117.337,23.7,117.337,23.118Z" transform="translate(61.239 9.411)" fill="#231815"/>
      <path id="パス_10554" data-name="パス 10554" d="M100.79,18.62h0v5.322h.826V18.865Z" transform="translate(53.348 9.856)" fill="#231815"/>
      <path id="パス_10555" data-name="パス 10555" d="M101.23,17.49a.49.49,0,1,0,.352.149.49.49,0,0,0-.352-.149Z" transform="translate(53.321 9.258)" fill="#231815"/>
      <path id="パス_10556" data-name="パス 10556" d="M114.29,18.62h0v5.322h.826V18.865Z" transform="translate(60.493 9.856)" fill="#231815"/>
      <path id="パス_10557" data-name="パス 10557" d="M114.73,17.49a.49.49,0,1,0,.352.149.49.49,0,0,0-.352-.149Z" transform="translate(60.467 9.258)" fill="#231815"/>
      <path id="パス_10558" data-name="パス 10558" d="M110.47,18.75Z" transform="translate(58.471 9.925)" fill="#231815"/>
      <path id="パス_10559" data-name="パス 10559" d="M111.238,18.756a1.529,1.529,0,0,0-1.422.749h0v-.658l-.8-.107h0v5.138h.84V20.82a1.177,1.177,0,0,1,1.285-1.32h.184v-.72Z" transform="translate(57.704 9.92)" fill="#231815"/>
      <path id="パス_10560" data-name="パス 10560" d="M38.917,17.165a2.37,2.37,0,0,0-1.85.688c-.566.673-.551,1.529-.551,3.166a6.286,6.286,0,0,0,.275,2.722,2.05,2.05,0,0,0,2.1,1.08,2.1,2.1,0,0,0,2.141-1.147,6.331,6.331,0,0,0,.275-2.66c0-1.621,0-2.569-.566-3.211a2.233,2.233,0,0,0-1.82-.642Zm1.331,5.873c-.168.688-.49,1.163-1.331,1.163a1.306,1.306,0,0,1-1.392-1.224,23.964,23.964,0,0,1,0-3.778,1.32,1.32,0,0,1,1.392-1.27,1.224,1.224,0,0,1,1.331,1.116,18.353,18.353,0,0,1,0,3.991Z" transform="translate(19.304 9.078)" fill="#231815"/>
      <path id="パス_10561" data-name="パス 10561" d="M42.641,20.954c-.642-.306-1.132-.52-1.132-1.04a.688.688,0,0,1,.749-.7.764.764,0,0,1,.871.642v.3h.749a2.234,2.234,0,0,0,0-.383c-.138-.764-.628-1.1-1.529-1.1s-1.68.413-1.68,1.331.673,1.147,1.44,1.529,1.025.505,1.025,1.132a.749.749,0,0,1-.857.8.826.826,0,0,1-.918-.81,2,2,0,0,1,0-.26H40.6a3.258,3.258,0,0,0,0,.336c.077.871.642,1.32,1.7,1.32s1.774-.49,1.774-1.529S43.339,21.305,42.641,20.954Z" transform="translate(21.488 9.878)" fill="#231815"/>
      <path id="パス_10562" data-name="パス 10562" d="M48.8,21.8h0l1.712-2.186H49.52l-1.529,2.141V17.5l-.84-.24v7.4h.826V21.954l1.753,2.723h1.009Z" transform="translate(24.957 9.137)" fill="#231815"/>
      <path id="パス_10563" data-name="パス 10563" d="M45.734,18.684a1.789,1.789,0,0,0-1.621.688,1.08,1.08,0,0,0-.152.428,1.527,1.527,0,0,0,0,.214h.84v-.108a.72.72,0,0,1,0-.26.826.826,0,0,1,.8-.428c.887,0,.932.673.932,1.285v.229c-1.44,0-2.905.107-2.905,1.728a1.3,1.3,0,0,0,1.529,1.44h2.111a.168.168,0,0,0,.152-.152V20.4C47.386,19.25,47.019,18.684,45.734,18.684ZM46.59,23.2a.168.168,0,0,1-.152.138H45.413c-.581,0-.81-.4-.81-.9,0-.948.81-1.04,1.744-1.04h.24Z" transform="translate(23.084 9.883)" fill="#231815"/>
      <path id="パス_10564" data-name="パス 10564" d="M52.018,18.684a1.759,1.759,0,0,0-1.621.688.887.887,0,0,0-.152.428,1.532,1.532,0,0,0,0,.214h.84v-.108a1.285,1.285,0,0,1,.077-.26.826.826,0,0,1,.8-.428c.871,0,.932.673.932,1.285v.229c-1.44,0-2.905.107-2.905,1.728a1.3,1.3,0,0,0,1.529,1.44h2.125a.184.184,0,0,0,.152-.152V20.4C53.746,19.251,53.365,18.684,52.018,18.684Zm.84,4.512a.138.138,0,0,1-.138.138H51.695c-.581,0-.81-.4-.81-.9,0-.948.81-1.04,1.744-1.04h.229Z" transform="translate(26.451 9.883)" fill="#231815"/>
      <path id="パス_10565" data-name="パス 10565" d="M70.313,18.67c-1.759,0-1.973,1.238-1.973,2.692s.184,2.615,1.912,2.615,1.943-1.009,1.943-2.676S72.072,18.67,70.313,18.67Zm.979,3.166c0,.7,0,1.529-1.025,1.529s-1.04-.9-1.04-1.529v-.72c0-.7,0-1.835,1.07-1.835s.994,1.055.994,1.82Z" transform="translate(36.172 9.883)" fill="#231815"/>
      <path id="パス_10566" data-name="パス 10566" d="M76.893,18.67c-1.759,0-1.973,1.238-1.973,2.692s.168,2.615,1.912,2.615,1.943-1.009,1.943-2.676S78.636,18.67,76.893,18.67Zm.979,3.166c0,.7,0,1.529-1.025,1.529s-1.04-.9-1.04-1.529v-.72c0-.7,0-1.835,1.07-1.835s.994,1.055.994,1.82Z" transform="translate(39.655 9.883)" fill="#231815"/>
      <path id="パス_10567" data-name="パス 10567" d="M73.656,18.67a2.172,2.172,0,0,0-1.163.29l-.734-.214h0v7.039h.81V23.763a2.447,2.447,0,0,0,1.055.2c1.667,0,1.943-1.009,1.943-2.676S75.323,18.67,73.656,18.67Zm.979,3.166c0,.7,0,1.529-1.04,1.529s-1.025-.9-1.025-1.529v-.72c0-.7,0-1.835,1.07-1.835s.994,1.055.994,1.82Z" transform="translate(37.982 9.881)" fill="#231815"/>
      <path id="パス_10568" data-name="パス 10568" d="M62.418,18.65c-1.943,0-2.018,1.529-2.018,2.891s.214,2.478,1.943,2.478c1.376,0,1.85-.673,1.9-1.728h-.81c0,.612-.24,1.147-1.08,1.147s-1.025-.566-1.025-1.193v-.72H64.26v-.2C64.269,19.965,64.24,18.65,62.418,18.65Zm-1.1,2.248a4.586,4.586,0,0,1,0-.658,1.009,1.009,0,0,1,1.07-1.009.96.96,0,0,1,.979,1.009,4.847,4.847,0,0,1,0,.658Z" transform="translate(31.97 9.872)" fill="#231815"/>
      <path id="パス_10569" data-name="パス 10569" d="M83.348,23.128v-3.36h1.008v-.48H83.348V18.125l-.887-.367v1.529h-.84v.48h.84v3.456c0,.9.214,1.27,1.285,1.27h.642v-.628H84C83.5,23.847,83.348,23.709,83.348,23.128Z" transform="translate(43.201 9.4)" fill="#231815"/>
      <path id="パス_10570" data-name="パス 10570" d="M80.25,23.977h.887V18.854l-.887-.24Z" transform="translate(42.476 9.851)" fill="#231815"/>
      <path id="パス_10571" data-name="パス 10571" d="M80.927,17.535a.505.505,0,0,0-.673.658.48.48,0,0,0,.24.24.505.505,0,0,0,.673-.658.48.48,0,0,0-.24-.24Z" transform="translate(42.456 9.258)" fill="#231815"/>
      <path id="パス_10572" data-name="パス 10572" d="M78.4,17.25h0V24.7h.887V17.5h0Z" transform="translate(41.496 9.131)" fill="#231815"/>
      <path id="パス_10573" data-name="パス 10573" d="M86.124,18.684a1.8,1.8,0,0,0-1.637.688,1.392,1.392,0,0,0-.152.428v.214h.84v-.108a.734.734,0,0,1,0-.26.81.81,0,0,1,.8-.428c.871,0,.932.673.932,1.285v.229c-1.44,0-2.921.107-2.921,1.728a1.32,1.32,0,0,0,1.529,1.44h2.125a.168.168,0,0,0,.138-.152V20.4C87.837,19.25,87.469,18.684,86.124,18.684Zm.84,4.512a.138.138,0,0,1-.138.138H85.8c-.6,0-.826-.4-.826-.9,0-.948.81-1.04,1.759-1.04h.229Z" transform="translate(44.447 9.883)" fill="#231815"/>
      <path id="パス_10574" data-name="パス 10574" d="M89.8,18.706a1.651,1.651,0,0,0-1.529.81v-.764l-.8-.12v5.306h.8V20.874c0-.688.306-1.529,1.147-1.529s.871.734.871,1.361v3.288h.887V20.312C91.224,19.333,90.814,18.706,89.8,18.706Z" transform="translate(46.302 9.862)" fill="#231815"/>
      <path id="パス_10575" data-name="パス 10575" d="M68.568,18.755a1.529,1.529,0,0,0-1.44.78v-.673l-.81-.12h0V23.9h.9V20.835a1.177,1.177,0,0,1,1.284-1.32H68.7v-.72h-.091Z" transform="translate(35.103 9.92)" fill="#231815"/>
      <path id="パス_10576" data-name="パス 10576" d="M67.79,18.75Z" transform="translate(35.881 9.925)" fill="#231815"/>
      <path id="パス_10577" data-name="パス 10577" d="M60.516,17.27h0L58.6,21.35h0l-1.943-4.08H55.62v7.386h.826v-6.12l1.7,3.61h.78l1.68-3.61h0v6.12h.81v-7.37h0Z" transform="translate(29.439 9.141)" fill="#231815"/>
      <path id="パス_10578" data-name="パス 10578" d="M65.258,23.128v-3.36h1.009v-.48H65.258V18.125l-.887-.367v1.529h-.84v.48h.84v3.456c0,.9.214,1.27,1.284,1.27a4.589,4.589,0,0,0,.642,0v-.628h-.4C65.414,23.847,65.258,23.709,65.258,23.128Z" transform="translate(33.626 9.4)" fill="#231815"/>
    </g>
  </g>
</svg>
